<svg width="757" height="154" viewBox="0 0 757 154" fill="none" xmlns="http://www.w3.org/2000/svg">
<g clip-path="url(#clip0_2_76)">
<path d="M35.1371 0C40.9102 1.66038 46.0283 4.34867 51.3246 7.125C52.3234 7.64852 53.3223 8.17204 54.3514 8.71143C71.1026 17.6001 87.3847 27.351 103.2 37.8125C104.08 38.3931 104.961 38.9736 105.868 39.5718C106.67 40.1114 107.471 40.651 108.297 41.207C108.995 41.676 109.692 42.145 110.411 42.6282C112.666 44.4206 114.021 46.0662 114.383 48.9777C114.38 50.1129 114.38 50.1129 114.378 51.271C114.38 52.1418 114.383 53.0126 114.386 53.9098C114.375 55.3383 114.375 55.3383 114.364 56.7957C114.364 57.8007 114.365 58.8058 114.365 59.8413C114.364 63.169 114.348 66.4965 114.332 69.8242C114.329 72.1292 114.326 74.4342 114.324 76.7392C114.316 82.8105 114.297 88.8817 114.274 94.9529C114.254 101.146 114.245 107.34 114.235 113.533C114.213 125.689 114.179 137.844 114.137 150C110.948 149.268 108.715 148.27 105.961 146.48C105.146 145.959 104.331 145.437 103.491 144.9C102.611 144.335 101.731 143.77 100.825 143.188C83.2226 132.146 65.1842 123.26 45.8112 115.832C44.582 115.359 43.3528 114.886 42.0863 114.398C40.9863 113.983 39.8864 113.567 38.7531 113.138C36.1371 112 36.1371 112 34.1371 110C33.8882 108.054 33.8882 108.054 33.8898 105.628C33.8857 104.71 33.8815 103.791 33.8771 102.845C33.8828 101.835 33.8884 100.824 33.8942 99.783C33.8923 98.7211 33.8904 97.6593 33.8884 96.5653C33.8847 93.0422 33.8954 89.5192 33.9066 85.9961C33.9078 83.5575 33.9083 81.119 33.908 78.6804C33.9096 73.565 33.9179 68.4496 33.9313 63.3342C33.9483 56.7608 33.9521 50.1875 33.9513 43.614C33.9516 38.5776 33.9571 33.5412 33.9643 28.5048C33.9675 26.0802 33.9695 23.6556 33.9702 21.231C33.9724 17.8498 33.9811 14.4688 33.9918 11.0876C33.9914 10.0752 33.9909 9.06266 33.9904 8.01949C33.9947 7.10386 33.999 6.18823 34.0034 5.24486C34.005 4.44457 34.0067 3.64429 34.0084 2.81975C34.1371 1 34.1371 1 35.1371 0Z" fill="#069AA2"/>
<path d="M181.137 20C181.254 33.8992 181.342 47.7982 181.396 61.6978C181.422 68.1515 181.458 74.6048 181.514 81.0583C181.568 87.2829 181.598 93.5071 181.611 99.7319C181.621 102.11 181.639 104.489 181.666 106.867C181.702 110.191 181.707 113.513 181.705 116.837C181.723 117.827 181.741 118.817 181.759 119.836C181.74 122.325 181.687 124.573 181.137 127C178.801 129.057 178.801 129.057 176.137 130C175.085 130.414 174.033 130.828 172.95 131.254C171.681 131.696 170.41 132.132 169.137 132.562C168.078 132.928 168.078 132.928 166.997 133.302C165.355 133.868 163.712 134.432 162.068 134.995C159.29 135.947 156.516 136.909 153.742 137.873C151.149 138.775 148.556 139.675 145.962 140.574C144.671 141.021 143.381 141.469 142.091 141.918C140.25 142.556 138.408 143.192 136.567 143.828C134.962 144.384 134.962 144.384 133.324 144.95C129.957 146.059 126.545 147.026 123.137 148C123.137 115.33 123.137 82.66 123.137 49C144.632 37.6868 144.632 37.6868 154.512 32.8125C162.078 29.0614 169.573 25.2357 176.942 21.1094C179.137 20 179.137 20 181.137 20Z" fill="#73BE50"/>
<path d="M1.13709 29C4.66956 29.5587 8.11838 30.4631 11.5746 31.375C12.4808 31.6096 13.387 31.8442 14.3207 32.0859C17.4451 33.1 20.2156 34.5073 23.1371 36C23.1385 37.0457 23.1399 38.0914 23.1414 39.1688C23.1581 49.0132 23.2008 58.8571 23.2692 68.7013C23.3035 73.7626 23.3286 78.8236 23.3326 83.885C23.3369 88.7677 23.3653 93.6496 23.4105 98.5321C23.4235 100.397 23.4278 102.262 23.4232 104.126C23.4184 106.734 23.4443 109.341 23.4777 111.948C23.4647 113.111 23.4647 113.111 23.4515 114.296C23.4471 116.698 23.4471 116.698 24.1371 120C26.3633 122.028 26.3633 122.028 29.1371 123C30.3184 123.493 31.4998 123.987 32.7169 124.495C34.1041 125.028 35.4929 125.557 36.8832 126.082C38.4457 126.683 40.0079 127.285 41.57 127.888C42.387 128.202 43.2041 128.515 44.0459 128.839C57.7031 134.098 71.1923 139.609 84.4496 145.812C85.4191 146.262 85.4191 146.262 86.4083 146.722C96.9536 151.633 96.9536 151.633 98.1371 154C88.4597 153.224 78.9598 151.544 69.3988 149.91C67.5866 149.602 65.7745 149.295 63.9622 148.987C60.1821 148.345 56.4025 147.7 52.6232 147.053C47.7845 146.225 42.9445 145.406 38.104 144.589C34.369 143.957 30.6349 143.32 26.901 142.681C25.1164 142.377 23.3314 142.074 21.5462 141.774C19.0543 141.353 16.5637 140.926 14.0734 140.496C13.3403 140.374 12.6072 140.252 11.8519 140.126C2.6587 138.522 2.6587 138.522 0.137088 136C0.0395419 134.624 0.0107714 133.242 0.0101039 131.862C0.0072841 130.97 0.00446428 130.079 0.00155901 129.16C0.00358324 128.174 0.00560747 127.188 0.00769304 126.172C0.00594072 125.139 0.0041884 124.107 0.00238298 123.043C-0.00203776 119.612 0.000903245 116.181 0.00427507 112.75C0.00360209 110.377 0.00263212 108.005 0.0013759 105.632C-0.000101365 100.652 0.00205443 95.6716 0.00671648 90.6914C0.0124138 84.2917 0.00913494 77.8921 0.00314402 71.4924C-0.000460793 66.5907 0.000676629 61.6889 0.00327181 56.7872C0.0039413 54.4268 0.0031119 52.0664 0.000792256 49.7059C-0.00173296 46.4133 0.00210448 43.1207 0.00769304 39.8281C0.00566881 38.8421 0.00364458 37.8561 0.00155901 36.8402C0.00437883 35.9484 0.00719865 35.0566 0.0101039 34.1377C0.010481 33.3582 0.010858 32.5788 0.0112464 31.7757C0.137088 30 0.137088 30 1.13709 29Z" fill="#102744"/>
<path d="M212.095 116.5V44.98H239.455C244.383 44.98 248.735 45.844 252.511 47.572C256.351 49.3 259.359 51.86 261.535 55.252C263.711 58.644 264.799 62.836 264.799 67.828C264.799 72.692 263.679 76.852 261.439 80.308C259.199 83.7 256.191 86.26 252.415 87.988L268.735 116.5H252.031L234.367 84.916L243.967 90.58H226.975V116.5H212.095ZM226.975 77.62H239.551C241.663 77.62 243.487 77.204 245.023 76.372C246.559 75.54 247.743 74.388 248.575 72.916C249.471 71.444 249.919 69.748 249.919 67.828C249.919 65.844 249.471 64.116 248.575 62.644C247.743 61.172 246.559 60.02 245.023 59.188C243.487 58.356 241.663 57.94 239.551 57.94H226.975V77.62ZM293.886 117.652C289.662 117.652 286.046 116.756 283.038 114.964C280.094 113.108 277.854 110.548 276.318 107.284C274.782 104.02 274.014 100.212 274.014 95.86V64.084H288.414V94.708C288.414 96.692 288.798 98.452 289.566 99.988C290.398 101.46 291.55 102.612 293.022 103.444C294.494 104.276 296.158 104.692 298.014 104.692C299.934 104.692 301.598 104.276 303.006 103.444C304.478 102.612 305.598 101.46 306.366 99.988C307.198 98.452 307.614 96.692 307.614 94.708V64.084H322.014V116.5H308.574V106.132L309.342 108.436C308.126 111.572 306.142 113.908 303.39 115.444C300.702 116.916 297.534 117.652 293.886 117.652ZM348.763 117.652C344.987 117.652 341.723 117.044 338.971 115.828C336.219 114.612 334.107 112.884 332.635 110.644C331.163 108.34 330.427 105.62 330.427 102.484C330.427 99.54 331.099 96.948 332.443 94.708C333.787 92.404 335.835 90.484 338.587 88.948C341.403 87.412 344.891 86.324 349.051 85.684L365.083 83.092V93.652L351.643 96.052C349.595 96.436 348.027 97.108 346.939 98.068C345.851 98.964 345.307 100.276 345.307 102.004C345.307 103.604 345.915 104.852 347.131 105.748C348.347 106.644 349.851 107.092 351.643 107.092C354.011 107.092 356.091 106.58 357.883 105.556C359.675 104.532 361.051 103.156 362.011 101.428C363.035 99.636 363.547 97.684 363.547 95.572V81.94C363.547 79.956 362.747 78.292 361.147 76.948C359.611 75.604 357.499 74.932 354.811 74.932C352.251 74.932 349.979 75.636 347.995 77.044C346.075 78.452 344.667 80.308 343.771 82.612L332.251 77.14C333.275 74.196 334.907 71.668 337.147 69.556C339.387 67.444 342.075 65.812 345.211 64.66C348.347 63.508 351.771 62.932 355.483 62.932C359.899 62.932 363.803 63.732 367.195 65.332C370.587 66.932 373.211 69.172 375.067 72.052C376.987 74.868 377.947 78.164 377.947 81.94V116.5H364.507V108.052L367.771 107.476C366.235 109.78 364.539 111.7 362.683 113.236C360.827 114.708 358.747 115.796 356.443 116.5C354.139 117.268 351.579 117.652 348.763 117.652ZM388.508 116.5V64.084H401.948V74.452L401.18 72.148C402.396 69.012 404.348 66.708 407.036 65.236C409.788 63.7 412.988 62.932 416.636 62.932C420.604 62.932 424.06 63.764 427.004 65.428C430.012 67.092 432.348 69.428 434.012 72.436C435.676 75.38 436.508 78.836 436.508 82.804V116.5H422.108V85.876C422.108 83.828 421.692 82.068 420.86 80.596C420.092 79.124 418.972 77.972 417.5 77.14C416.092 76.308 414.428 75.892 412.508 75.892C410.652 75.892 408.988 76.308 407.516 77.14C406.044 77.972 404.892 79.124 404.06 80.596C403.292 82.068 402.908 83.828 402.908 85.876V116.5H388.508ZM471.705 137.62C467.673 137.62 463.929 136.948 460.473 135.604C457.017 134.26 454.041 132.372 451.545 129.94C449.113 127.572 447.353 124.756 446.265 121.492L459.609 116.788C460.313 119.22 461.753 121.14 463.929 122.548C466.105 123.956 468.697 124.66 471.705 124.66C474.073 124.66 476.121 124.212 477.849 123.316C479.577 122.484 480.889 121.236 481.785 119.572C482.745 117.908 483.225 115.956 483.225 113.716V101.716L486.009 105.172C484.217 108.116 481.913 110.324 479.097 111.796C476.281 113.204 472.985 113.908 469.209 113.908C464.345 113.908 459.993 112.82 456.153 110.644C452.313 108.404 449.305 105.364 447.129 101.524C444.953 97.62 443.865 93.204 443.865 88.276C443.865 83.348 444.953 78.996 447.129 75.22C449.305 71.38 452.281 68.372 456.057 66.196C459.833 64.02 464.121 62.932 468.921 62.932C472.697 62.932 475.993 63.7 478.809 65.236C481.625 66.708 484.025 68.98 486.009 72.052L484.185 75.508V64.084H497.625V113.716C497.625 118.324 496.505 122.42 494.265 126.004C492.025 129.652 488.953 132.5 485.049 134.548C481.209 136.596 476.761 137.62 471.705 137.62ZM471.225 100.852C473.657 100.852 475.769 100.34 477.561 99.316C479.353 98.292 480.729 96.852 481.689 94.996C482.713 93.14 483.225 90.964 483.225 88.468C483.225 85.972 482.713 83.796 481.689 81.94C480.665 80.02 479.257 78.548 477.465 77.524C475.673 76.436 473.593 75.892 471.225 75.892C468.793 75.892 466.617 76.436 464.697 77.524C462.841 78.548 461.369 80.02 460.281 81.94C459.257 83.796 458.745 85.972 458.745 88.468C458.745 90.9 459.257 93.044 460.281 94.9C461.369 96.756 462.841 98.228 464.697 99.316C466.617 100.34 468.793 100.852 471.225 100.852ZM509.283 116.5V44.98H524.163V80.788L520.035 79.348L548.643 44.98H567.267L538.947 79.156L539.811 68.596L567.843 116.5H550.467L532.995 86.26L524.163 96.916V116.5H509.283ZM597.506 117.652C591.938 117.652 587.106 116.436 583.01 114.004C578.914 111.508 575.746 108.18 573.506 104.02C571.266 99.86 570.146 95.252 570.146 90.196C570.146 84.948 571.298 80.276 573.602 76.18C575.97 72.084 579.138 68.852 583.106 66.484C587.074 64.116 591.554 62.932 596.546 62.932C600.706 62.932 604.386 63.604 607.586 64.948C610.786 66.228 613.474 68.052 615.65 70.42C617.89 72.788 619.586 75.54 620.738 78.676C621.89 81.748 622.466 85.108 622.466 88.756C622.466 89.78 622.402 90.804 622.274 91.828C622.21 92.788 622.05 93.62 621.794 94.324H582.53V83.764H613.634L606.818 88.756C607.458 86.004 607.426 83.572 606.722 81.46C606.018 79.284 604.77 77.588 602.978 76.372C601.25 75.092 599.106 74.452 596.546 74.452C594.05 74.452 591.906 75.06 590.114 76.276C588.322 77.492 586.978 79.284 586.082 81.652C585.186 84.02 584.834 86.9 585.026 90.292C584.77 93.236 585.122 95.828 586.082 98.068C587.042 100.308 588.514 102.068 590.498 103.348C592.482 104.564 594.882 105.172 597.698 105.172C600.258 105.172 602.434 104.66 604.226 103.636C606.082 102.612 607.522 101.204 608.546 99.412L620.066 104.884C619.042 107.444 617.41 109.684 615.17 111.604C612.994 113.524 610.402 115.028 607.394 116.116C604.386 117.14 601.09 117.652 597.506 117.652ZM630.945 116.5V43.828H645.345V116.5H630.945ZM672.107 117.652C668.331 117.652 665.067 117.044 662.315 115.828C659.563 114.612 657.451 112.884 655.979 110.644C654.507 108.34 653.771 105.62 653.771 102.484C653.771 99.54 654.443 96.948 655.787 94.708C657.131 92.404 659.179 90.484 661.931 88.948C664.747 87.412 668.235 86.324 672.395 85.684L688.427 83.092V93.652L674.987 96.052C672.939 96.436 671.371 97.108 670.283 98.068C669.195 98.964 668.651 100.276 668.651 102.004C668.651 103.604 669.259 104.852 670.475 105.748C671.691 106.644 673.195 107.092 674.987 107.092C677.355 107.092 679.435 106.58 681.227 105.556C683.019 104.532 684.395 103.156 685.355 101.428C686.379 99.636 686.891 97.684 686.891 95.572V81.94C686.891 79.956 686.091 78.292 684.491 76.948C682.955 75.604 680.843 74.932 678.155 74.932C675.595 74.932 673.323 75.636 671.339 77.044C669.419 78.452 668.011 80.308 667.115 82.612L655.595 77.14C656.619 74.196 658.251 71.668 660.491 69.556C662.731 67.444 665.419 65.812 668.555 64.66C671.691 63.508 675.115 62.932 678.827 62.932C683.243 62.932 687.147 63.732 690.539 65.332C693.931 66.932 696.555 69.172 698.411 72.052C700.331 74.868 701.291 78.164 701.291 81.94V116.5H687.851V108.052L691.115 107.476C689.579 109.78 687.883 111.7 686.027 113.236C684.171 114.708 682.091 115.796 679.787 116.5C677.483 117.268 674.923 117.652 672.107 117.652ZM732.396 117.652C726.636 117.652 721.612 116.308 717.324 113.62C713.1 110.868 710.22 107.188 708.684 102.58L719.244 97.588C720.588 100.404 722.412 102.612 724.716 104.212C727.02 105.812 729.58 106.612 732.396 106.612C734.444 106.612 736.012 106.196 737.1 105.364C738.188 104.532 738.732 103.38 738.732 101.908C738.732 101.14 738.54 100.5 738.156 99.988C737.772 99.412 737.196 98.9 736.428 98.452C735.66 98.004 734.7 97.62 733.548 97.3L724.62 94.804C720.332 93.588 717.036 91.636 714.732 88.948C712.428 86.196 711.276 82.964 711.276 79.252C711.276 75.988 712.108 73.14 713.772 70.708C715.436 68.276 717.772 66.388 720.78 65.044C723.788 63.636 727.244 62.932 731.148 62.932C736.268 62.932 740.748 64.148 744.588 66.58C748.492 68.948 751.244 72.308 752.844 76.66L742.188 81.652C741.42 79.476 740.012 77.748 737.964 76.468C735.98 75.124 733.708 74.452 731.148 74.452C729.292 74.452 727.82 74.836 726.732 75.604C725.708 76.372 725.196 77.428 725.196 78.772C725.196 79.476 725.388 80.116 725.772 80.692C726.156 81.268 726.764 81.78 727.596 82.228C728.492 82.676 729.58 83.092 730.86 83.476L739.212 85.972C743.564 87.252 746.892 89.204 749.196 91.828C751.5 94.388 752.652 97.556 752.652 101.332C752.652 104.596 751.788 107.444 750.06 109.876C748.396 112.308 746.06 114.228 743.052 115.636C740.044 116.98 736.492 117.652 732.396 117.652Z" fill="#102744"/>
</g>
<defs>
<clipPath id="clip0_2_76">
<rect width="756.759" height="154" fill="white"/>
</clipPath>
</defs>
</svg>
