<svg width="276" height="226" viewBox="0 0 276 226" fill="none" xmlns="http://www.w3.org/2000/svg">
<g clip-path="url(#clip0_2_79)">
<path d="M82.2575 0C88.0307 1.66038 93.1487 4.34867 98.445 7.125C99.4439 7.64852 100.443 8.17204 101.472 8.71143C118.223 17.6001 134.505 27.351 150.32 37.8125C151.201 38.3931 152.081 38.9736 152.988 39.5718C153.79 40.1114 154.592 40.651 155.418 41.207C156.115 41.676 156.813 42.145 157.531 42.6282C159.787 44.4206 161.141 46.0662 161.504 48.9777C161.501 50.1129 161.501 50.1129 161.498 51.271C161.501 52.1418 161.504 53.0126 161.506 53.9098C161.496 55.3383 161.496 55.3383 161.485 56.7957C161.485 57.8007 161.485 58.8058 161.485 59.8413C161.484 63.169 161.468 66.4965 161.453 69.8242C161.449 72.1292 161.446 74.4342 161.444 76.7392C161.437 82.8105 161.417 88.8817 161.395 94.9529C161.374 101.146 161.365 107.34 161.355 113.533C161.334 125.689 161.3 137.844 161.258 150C158.068 149.268 155.836 148.27 153.082 146.48C152.266 145.959 151.451 145.437 150.611 144.9C149.731 144.335 148.852 143.77 147.945 143.188C130.343 132.146 112.305 123.26 92.9316 115.832C91.7024 115.359 90.4732 114.886 89.2067 114.398C88.1068 113.983 87.0068 113.567 85.8735 113.138C83.2575 112 83.2575 112 81.2575 110C81.0086 108.054 81.0086 108.054 81.0103 105.628C81.0061 104.71 81.0019 103.791 80.9976 102.845C81.0032 101.835 81.0088 100.824 81.0146 99.783C81.0127 98.7211 81.0108 97.6593 81.0088 96.5653C81.0051 93.0422 81.0158 89.5192 81.027 85.9961C81.0282 83.5575 81.0287 81.119 81.0284 78.6804C81.03 73.565 81.0383 68.4496 81.0517 63.3342C81.0687 56.7608 81.0725 50.1875 81.0718 43.614C81.072 38.5776 81.0775 33.5412 81.0848 28.5048C81.0879 26.0802 81.0899 23.6556 81.0906 21.231C81.0928 17.8498 81.1015 14.4688 81.1122 11.0876C81.1118 10.0752 81.1113 9.06266 81.1109 8.01949C81.1151 7.10386 81.1194 6.18823 81.1238 5.24486C81.1255 4.44457 81.1271 3.64429 81.1289 2.81975C81.2575 1 81.2575 1 82.2575 0Z" fill="#069AA2"/>
<path d="M228.258 20C228.374 33.8992 228.462 47.7982 228.517 61.6978C228.543 68.1515 228.578 74.6048 228.635 81.0583C228.689 87.2829 228.719 93.5071 228.732 99.7319C228.741 102.11 228.759 104.489 228.786 106.867C228.822 110.191 228.827 113.513 228.825 116.837C228.843 117.827 228.861 118.817 228.88 119.836C228.861 122.325 228.807 124.573 228.258 127C225.921 129.057 225.921 129.057 223.258 130C222.206 130.414 221.154 130.828 220.07 131.254C218.801 131.696 217.53 132.132 216.258 132.562C215.198 132.928 215.198 132.928 214.117 133.302C212.475 133.868 210.832 134.432 209.188 134.995C206.411 135.947 203.636 136.909 200.863 137.873C198.27 138.775 195.676 139.675 193.082 140.574C191.792 141.021 190.501 141.469 189.211 141.918C187.37 142.556 185.529 143.192 183.687 143.828C182.082 144.384 182.082 144.384 180.445 144.95C177.078 146.059 173.666 147.026 170.258 148C170.258 115.33 170.258 82.66 170.258 49C191.753 37.6868 191.753 37.6868 201.633 32.8125C209.199 29.0614 216.694 25.2357 224.062 21.1094C226.258 20 226.258 20 228.258 20Z" fill="#73BE50"/>
<path d="M48.2575 29C51.79 29.5587 55.2388 30.4631 58.695 31.375C59.6012 31.6096 60.5074 31.8442 61.4411 32.0859C64.5656 33.1 67.336 34.5073 70.2575 36C70.2589 37.0457 70.2604 38.0914 70.2618 39.1688C70.2785 49.0132 70.3212 58.8571 70.3896 68.7013C70.4239 73.7626 70.449 78.8236 70.4531 83.885C70.4573 88.7677 70.4857 93.6496 70.5309 98.5321C70.544 100.397 70.5482 102.262 70.5437 104.126C70.5388 106.734 70.5647 109.341 70.5981 111.948C70.5851 113.111 70.5851 113.111 70.5719 114.296C70.5675 116.698 70.5675 116.698 71.2575 120C73.4838 122.028 73.4838 122.028 76.2575 123C77.4389 123.493 78.6202 123.987 79.8373 124.495C81.2245 125.028 82.6134 125.557 84.0036 126.082C85.5661 126.683 87.1283 127.285 88.6904 127.888C89.5074 128.202 90.3245 128.515 91.1664 128.839C104.824 134.098 118.313 139.609 131.57 145.812C132.54 146.262 132.54 146.262 133.529 146.722C144.074 151.633 144.074 151.633 145.258 154C135.58 153.224 126.08 151.544 116.519 149.91C114.707 149.602 112.895 149.295 111.083 148.987C107.303 148.345 103.523 147.7 99.7436 147.053C94.9049 146.225 90.0649 145.406 85.2245 144.589C81.4895 143.957 77.7553 143.32 74.0214 142.681C72.2368 142.377 70.4518 142.074 68.6666 141.774C66.1747 141.353 63.6841 140.926 61.1938 140.496C60.4607 140.374 59.7276 140.252 58.9724 140.126C49.7791 138.522 49.7791 138.522 47.2575 136C47.16 134.624 47.1312 133.242 47.1305 131.862C47.1277 130.97 47.1249 130.079 47.122 129.16C47.124 128.174 47.126 127.188 47.1281 126.172C47.1264 125.139 47.1246 124.107 47.1228 123.043C47.1184 119.612 47.1213 116.181 47.1247 112.75C47.124 110.377 47.1231 108.005 47.1218 105.632C47.1203 100.652 47.1225 95.6716 47.1271 90.6914C47.1328 84.2917 47.1296 77.8921 47.1236 71.4924C47.12 66.5907 47.1211 61.6889 47.1237 56.7872C47.1244 54.4268 47.1235 52.0664 47.1212 49.7059C47.1187 46.4133 47.1225 43.1207 47.1281 39.8281C47.1261 38.8421 47.1241 37.8561 47.122 36.8402C47.1248 35.9484 47.1276 35.0566 47.1305 34.1377C47.1309 33.3582 47.1313 32.5788 47.1317 31.7757C47.2575 30 47.2575 30 48.2575 29Z" fill="#102744"/>
<path d="M3.168 216V180.24H16.848C19.312 180.24 21.488 180.672 23.376 181.536C25.296 182.4 26.8 183.68 27.888 185.376C28.976 187.072 29.52 189.168 29.52 191.664C29.52 194.096 28.96 196.176 27.84 197.904C26.72 199.6 25.216 200.88 23.328 201.744L31.488 216H23.136L14.304 200.208L19.104 203.04H10.608V216H3.168ZM10.608 196.56H16.896C17.952 196.56 18.864 196.352 19.632 195.936C20.4 195.52 20.992 194.944 21.408 194.208C21.856 193.472 22.08 192.624 22.08 191.664C22.08 190.672 21.856 189.808 21.408 189.072C20.992 188.336 20.4 187.76 19.632 187.344C18.864 186.928 17.952 186.72 16.896 186.72H10.608V196.56ZM44.0636 216.576C41.9516 216.576 40.1436 216.128 38.6396 215.232C37.1676 214.304 36.0476 213.024 35.2796 211.392C34.5116 209.76 34.1276 207.856 34.1276 205.68V189.792H41.3276V205.104C41.3276 206.096 41.5196 206.976 41.9036 207.744C42.3196 208.48 42.8956 209.056 43.6316 209.472C44.3676 209.888 45.1996 210.096 46.1276 210.096C47.0876 210.096 47.9196 209.888 48.6236 209.472C49.3596 209.056 49.9196 208.48 50.3036 207.744C50.7196 206.976 50.9276 206.096 50.9276 205.104V189.792H58.1276V216H51.4076V210.816L51.7916 211.968C51.1836 213.536 50.1916 214.704 48.8156 215.472C47.4716 216.208 45.8876 216.576 44.0636 216.576ZM71.502 216.576C69.614 216.576 67.982 216.272 66.606 215.664C65.23 215.056 64.174 214.192 63.438 213.072C62.702 211.92 62.334 210.56 62.334 208.992C62.334 207.52 62.67 206.224 63.342 205.104C64.014 203.952 65.038 202.992 66.414 202.224C67.822 201.456 69.566 200.912 71.646 200.592L79.662 199.296V204.576L72.942 205.776C71.918 205.968 71.134 206.304 70.59 206.784C70.046 207.232 69.774 207.888 69.774 208.752C69.774 209.552 70.078 210.176 70.686 210.624C71.294 211.072 72.046 211.296 72.942 211.296C74.126 211.296 75.166 211.04 76.062 210.528C76.958 210.016 77.646 209.328 78.126 208.464C78.638 207.568 78.894 206.592 78.894 205.536V198.72C78.894 197.728 78.494 196.896 77.694 196.224C76.926 195.552 75.87 195.216 74.526 195.216C73.246 195.216 72.11 195.568 71.118 196.272C70.158 196.976 69.454 197.904 69.006 199.056L63.246 196.32C63.758 194.848 64.574 193.584 65.694 192.528C66.814 191.472 68.158 190.656 69.726 190.08C71.294 189.504 73.006 189.216 74.862 189.216C77.07 189.216 79.022 189.616 80.718 190.416C82.414 191.216 83.726 192.336 84.654 193.776C85.614 195.184 86.094 196.832 86.094 198.72V216H79.374V211.776L81.006 211.488C80.238 212.64 79.39 213.6 78.462 214.368C77.534 215.104 76.494 215.648 75.342 216C74.19 216.384 72.91 216.576 71.502 216.576ZM91.3744 216V189.792H98.0944V194.976L97.7104 193.824C98.3184 192.256 99.2944 191.104 100.638 190.368C102.014 189.6 103.614 189.216 105.438 189.216C107.422 189.216 109.15 189.632 110.622 190.464C112.126 191.296 113.294 192.464 114.126 193.968C114.958 195.44 115.374 197.168 115.374 199.152V216H108.174V200.688C108.174 199.664 107.966 198.784 107.55 198.048C107.166 197.312 106.606 196.736 105.87 196.32C105.166 195.904 104.334 195.696 103.374 195.696C102.446 195.696 101.614 195.904 100.878 196.32C100.142 196.736 99.5664 197.312 99.1504 198.048C98.7664 198.784 98.5744 199.664 98.5744 200.688V216H91.3744ZM132.973 226.56C130.957 226.56 129.085 226.224 127.357 225.552C125.629 224.88 124.141 223.936 122.893 222.72C121.677 221.536 120.797 220.128 120.253 218.496L126.925 216.144C127.277 217.36 127.997 218.32 129.085 219.024C130.173 219.728 131.469 220.08 132.973 220.08C134.157 220.08 135.181 219.856 136.045 219.408C136.909 218.992 137.565 218.368 138.013 217.536C138.493 216.704 138.733 215.728 138.733 214.608V208.608L140.125 210.336C139.229 211.808 138.077 212.912 136.669 213.648C135.261 214.352 133.613 214.704 131.725 214.704C129.293 214.704 127.117 214.16 125.197 213.072C123.277 211.952 121.773 210.432 120.685 208.512C119.597 206.56 119.053 204.352 119.053 201.888C119.053 199.424 119.597 197.248 120.685 195.36C121.773 193.44 123.261 191.936 125.149 190.848C127.037 189.76 129.181 189.216 131.581 189.216C133.469 189.216 135.117 189.6 136.525 190.368C137.933 191.104 139.133 192.24 140.125 193.776L139.213 195.504V189.792H145.933V214.608C145.933 216.912 145.373 218.96 144.253 220.752C143.133 222.576 141.597 224 139.645 225.024C137.725 226.048 135.501 226.56 132.973 226.56ZM132.733 208.176C133.949 208.176 135.005 207.92 135.901 207.408C136.797 206.896 137.485 206.176 137.965 205.248C138.477 204.32 138.733 203.232 138.733 201.984C138.733 200.736 138.477 199.648 137.965 198.72C137.453 197.76 136.749 197.024 135.853 196.512C134.957 195.968 133.917 195.696 132.733 195.696C131.517 195.696 130.429 195.968 129.469 196.512C128.541 197.024 127.805 197.76 127.261 198.72C126.749 199.648 126.493 200.736 126.493 201.984C126.493 203.2 126.749 204.272 127.261 205.2C127.805 206.128 128.541 206.864 129.469 207.408C130.429 207.92 131.517 208.176 132.733 208.176ZM151.762 216V180.24H159.202V198.144L157.138 197.424L171.442 180.24H180.754L166.594 197.328L167.026 192.048L181.042 216H172.354L163.618 200.88L159.202 206.208V216H151.762ZM195.873 216.576C193.089 216.576 190.673 215.968 188.625 214.752C186.577 213.504 184.993 211.84 183.873 209.76C182.753 207.68 182.193 205.376 182.193 202.848C182.193 200.224 182.769 197.888 183.921 195.84C185.105 193.792 186.689 192.176 188.673 190.992C190.657 189.808 192.897 189.216 195.393 189.216C197.473 189.216 199.313 189.552 200.913 190.224C202.513 190.864 203.857 191.776 204.945 192.96C206.065 194.144 206.913 195.52 207.489 197.088C208.065 198.624 208.353 200.304 208.353 202.128C208.353 202.64 208.321 203.152 208.257 203.664C208.225 204.144 208.145 204.56 208.017 204.912H188.385V199.632H203.937L200.529 202.128C200.849 200.752 200.833 199.536 200.481 198.48C200.129 197.392 199.505 196.544 198.609 195.936C197.745 195.296 196.673 194.976 195.393 194.976C194.145 194.976 193.073 195.28 192.177 195.888C191.281 196.496 190.609 197.392 190.161 198.576C189.713 199.76 189.537 201.2 189.633 202.896C189.505 204.368 189.681 205.664 190.161 206.784C190.641 207.904 191.377 208.784 192.369 209.424C193.361 210.032 194.561 210.336 195.969 210.336C197.249 210.336 198.337 210.08 199.233 209.568C200.161 209.056 200.881 208.352 201.393 207.456L207.153 210.192C206.641 211.472 205.825 212.592 204.705 213.552C203.617 214.512 202.321 215.264 200.817 215.808C199.313 216.32 197.665 216.576 195.873 216.576ZM212.593 216V179.664H219.793V216H212.593ZM233.174 216.576C231.286 216.576 229.654 216.272 228.278 215.664C226.902 215.056 225.846 214.192 225.11 213.072C224.374 211.92 224.006 210.56 224.006 208.992C224.006 207.52 224.342 206.224 225.014 205.104C225.686 203.952 226.71 202.992 228.086 202.224C229.494 201.456 231.238 200.912 233.318 200.592L241.334 199.296V204.576L234.614 205.776C233.59 205.968 232.806 206.304 232.262 206.784C231.718 207.232 231.446 207.888 231.446 208.752C231.446 209.552 231.75 210.176 232.358 210.624C232.966 211.072 233.718 211.296 234.614 211.296C235.798 211.296 236.838 211.04 237.734 210.528C238.63 210.016 239.318 209.328 239.798 208.464C240.31 207.568 240.566 206.592 240.566 205.536V198.72C240.566 197.728 240.166 196.896 239.366 196.224C238.598 195.552 237.542 195.216 236.198 195.216C234.918 195.216 233.782 195.568 232.79 196.272C231.83 196.976 231.126 197.904 230.678 199.056L224.918 196.32C225.43 194.848 226.246 193.584 227.366 192.528C228.486 191.472 229.83 190.656 231.398 190.08C232.966 189.504 234.678 189.216 236.534 189.216C238.742 189.216 240.694 189.616 242.39 190.416C244.086 191.216 245.398 192.336 246.326 193.776C247.286 195.184 247.766 196.832 247.766 198.72V216H241.046V211.776L242.678 211.488C241.91 212.64 241.062 213.6 240.134 214.368C239.206 215.104 238.166 215.648 237.014 216C235.862 216.384 234.582 216.576 233.174 216.576ZM263.318 216.576C260.438 216.576 257.926 215.904 255.782 214.56C253.67 213.184 252.23 211.344 251.462 209.04L256.742 206.544C257.414 207.952 258.326 209.056 259.478 209.856C260.63 210.656 261.91 211.056 263.318 211.056C264.342 211.056 265.126 210.848 265.67 210.432C266.214 210.016 266.486 209.44 266.486 208.704C266.486 208.32 266.39 208 266.198 207.744C266.006 207.456 265.718 207.2 265.334 206.976C264.95 206.752 264.47 206.56 263.894 206.4L259.43 205.152C257.286 204.544 255.638 203.568 254.486 202.224C253.334 200.848 252.758 199.232 252.758 197.376C252.758 195.744 253.174 194.32 254.006 193.104C254.838 191.888 256.006 190.944 257.51 190.272C259.014 189.568 260.742 189.216 262.694 189.216C265.254 189.216 267.494 189.824 269.414 191.04C271.366 192.224 272.742 193.904 273.542 196.08L268.214 198.576C267.83 197.488 267.126 196.624 266.102 195.984C265.11 195.312 263.974 194.976 262.694 194.976C261.766 194.976 261.03 195.168 260.486 195.552C259.974 195.936 259.718 196.464 259.718 197.136C259.718 197.488 259.814 197.808 260.006 198.096C260.198 198.384 260.502 198.64 260.918 198.864C261.366 199.088 261.91 199.296 262.55 199.488L266.726 200.736C268.902 201.376 270.566 202.352 271.718 203.664C272.87 204.944 273.446 206.528 273.446 208.416C273.446 210.048 273.014 211.472 272.15 212.688C271.318 213.904 270.15 214.864 268.646 215.568C267.142 216.24 265.366 216.576 263.318 216.576Z" fill="#102744"/>
</g>
<defs>
<clipPath id="clip0_2_79">
<rect width="276" height="226" fill="white"/>
</clipPath>
</defs>
</svg>
