<svg width="182" height="154" viewBox="0 0 182 154" fill="none" xmlns="http://www.w3.org/2000/svg">
<g clip-path="url(#clip0_2_75)">
<path d="M35.1371 0C40.9102 1.66038 46.0283 4.34867 51.3246 7.125C52.3234 7.64852 53.3223 8.17204 54.3514 8.71143C71.1026 17.6001 87.3847 27.351 103.2 37.8125C104.08 38.3931 104.961 38.9736 105.868 39.5718C106.67 40.1114 107.471 40.651 108.297 41.207C108.995 41.676 109.692 42.145 110.411 42.6282C112.666 44.4206 114.021 46.0662 114.383 48.9777C114.38 50.1129 114.38 50.1129 114.378 51.271C114.38 52.1418 114.383 53.0126 114.386 53.9098C114.375 55.3383 114.375 55.3383 114.364 56.7957C114.364 57.8007 114.365 58.8058 114.365 59.8413C114.364 63.169 114.348 66.4965 114.332 69.8242C114.329 72.1292 114.326 74.4342 114.324 76.7392C114.316 82.8105 114.297 88.8817 114.274 94.9529C114.254 101.146 114.245 107.34 114.235 113.533C114.213 125.689 114.179 137.844 114.137 150C110.948 149.268 108.715 148.27 105.961 146.48C105.146 145.959 104.331 145.437 103.491 144.9C102.611 144.335 101.731 143.77 100.825 143.188C83.2226 132.146 65.1842 123.26 45.8112 115.832C44.582 115.359 43.3528 114.886 42.0863 114.398C40.9863 113.983 39.8864 113.567 38.7531 113.138C36.1371 112 36.1371 112 34.1371 110C33.8882 108.054 33.8882 108.054 33.8898 105.628C33.8857 104.71 33.8815 103.791 33.8771 102.845C33.8828 101.835 33.8884 100.824 33.8942 99.783C33.8923 98.7211 33.8904 97.6593 33.8884 96.5653C33.8847 93.0422 33.8954 89.5192 33.9066 85.9961C33.9078 83.5575 33.9083 81.119 33.908 78.6804C33.9096 73.565 33.9179 68.4496 33.9313 63.3342C33.9483 56.7608 33.9521 50.1875 33.9513 43.614C33.9516 38.5776 33.9571 33.5412 33.9643 28.5048C33.9675 26.0802 33.9695 23.6556 33.9702 21.231C33.9724 17.8498 33.9811 14.4688 33.9918 11.0876C33.9914 10.0752 33.9909 9.06266 33.9904 8.01949C33.9947 7.10386 33.999 6.18823 34.0034 5.24486C34.005 4.44457 34.0067 3.64429 34.0084 2.81975C34.1371 1 34.1371 1 35.1371 0Z" fill="#069AA2"/>
<path d="M181.137 20C181.254 33.8992 181.342 47.7982 181.396 61.6978C181.422 68.1515 181.458 74.6048 181.514 81.0583C181.568 87.2829 181.598 93.5071 181.611 99.7319C181.621 102.11 181.639 104.489 181.666 106.867C181.702 110.191 181.707 113.513 181.705 116.837C181.723 117.827 181.741 118.817 181.759 119.836C181.74 122.325 181.687 124.573 181.137 127C178.801 129.057 178.801 129.057 176.137 130C175.085 130.414 174.033 130.828 172.95 131.254C171.681 131.696 170.41 132.132 169.137 132.562C168.078 132.928 168.078 132.928 166.997 133.302C165.355 133.868 163.712 134.432 162.068 134.995C159.29 135.947 156.516 136.909 153.742 137.873C151.149 138.775 148.556 139.675 145.962 140.574C144.671 141.021 143.381 141.469 142.091 141.918C140.25 142.556 138.408 143.192 136.567 143.828C134.962 144.384 134.962 144.384 133.324 144.95C129.957 146.059 126.545 147.026 123.137 148C123.137 115.33 123.137 82.66 123.137 49C144.632 37.6868 144.632 37.6868 154.512 32.8125C162.078 29.0614 169.573 25.2357 176.942 21.1094C179.137 20 179.137 20 181.137 20Z" fill="#73BE50"/>
<path d="M1.13709 29C4.66956 29.5587 8.11838 30.4631 11.5746 31.375C12.4808 31.6096 13.387 31.8442 14.3207 32.0859C17.4451 33.1 20.2156 34.5073 23.1371 36C23.1385 37.0457 23.1399 38.0914 23.1414 39.1688C23.1581 49.0132 23.2008 58.8571 23.2692 68.7013C23.3035 73.7626 23.3286 78.8236 23.3326 83.885C23.3369 88.7677 23.3653 93.6496 23.4105 98.5321C23.4235 100.397 23.4278 102.262 23.4232 104.126C23.4184 106.734 23.4443 109.341 23.4777 111.948C23.4647 113.111 23.4647 113.111 23.4515 114.296C23.4471 116.698 23.4471 116.698 24.1371 120C26.3633 122.028 26.3633 122.028 29.1371 123C30.3184 123.493 31.4998 123.987 32.7169 124.495C34.1041 125.028 35.4929 125.557 36.8832 126.082C38.4457 126.683 40.0079 127.285 41.57 127.888C42.387 128.202 43.2041 128.515 44.0459 128.839C57.7031 134.098 71.1923 139.609 84.4496 145.812C85.4191 146.262 85.4191 146.262 86.4083 146.722C96.9536 151.633 96.9536 151.633 98.1371 154C88.4597 153.224 78.9598 151.544 69.3988 149.91C67.5866 149.602 65.7745 149.295 63.9622 148.987C60.1821 148.345 56.4025 147.7 52.6232 147.053C47.7845 146.225 42.9445 145.406 38.104 144.589C34.369 143.957 30.6349 143.32 26.901 142.681C25.1164 142.377 23.3314 142.074 21.5462 141.774C19.0543 141.353 16.5637 140.926 14.0734 140.496C13.3403 140.374 12.6072 140.252 11.8519 140.126C2.6587 138.522 2.6587 138.522 0.137088 136C0.0395419 134.624 0.0107714 133.242 0.0101039 131.862C0.0072841 130.97 0.00446428 130.079 0.00155901 129.16C0.00358324 128.174 0.00560747 127.188 0.00769304 126.172C0.00594072 125.139 0.0041884 124.107 0.00238298 123.043C-0.00203776 119.612 0.000903245 116.181 0.00427507 112.75C0.00360209 110.377 0.00263212 108.005 0.0013759 105.632C-0.000101365 100.652 0.00205443 95.6716 0.00671648 90.6914C0.0124138 84.2917 0.00913494 77.8921 0.00314402 71.4924C-0.000460793 66.5907 0.000676629 61.6889 0.00327181 56.7872C0.0039413 54.4268 0.0031119 52.0664 0.000792256 49.7059C-0.00173296 46.4133 0.00210448 43.1207 0.00769304 39.8281C0.00566881 38.8421 0.00364458 37.8561 0.00155901 36.8402C0.00437883 35.9484 0.00719865 35.0566 0.0101039 34.1377C0.010481 33.3582 0.010858 32.5788 0.0112464 31.7757C0.137088 30 0.137088 30 1.13709 29Z" fill="#102744"/>
</g>
<defs>
<clipPath id="clip0_2_75">
<rect width="181.759" height="154" fill="white"/>
</clipPath>
</defs>
</svg>
